<?xml version="1.0" encoding="UTF-8" standalone="no"?>
<!-- Created with Inkscape (http://www.inkscape.org/) -->

<svg
   xmlns="http://www.w3.org/2000/svg"
   viewBox="0 0 98 40"
   id="svg2"
   version="1.1">
  <g
     id="layer1"
     transform="translate(0,-1012.3622)">
    <rect
       style="opacity:1;fill:#9f0000;fill-opacity:1;stroke:none;stroke-width:50;stroke-linejoin:round;stroke-miterlimit:4;stroke-dasharray:none;stroke-opacity:1"
       id="rect4147-1"
       width="98"
       height="40"
       x="0"
       y="1012.3622" />
    <path
       style="opacity:1;fill:#ffffff;fill-opacity:1;stroke:none;stroke-width:50;stroke-linejoin:round;stroke-miterlimit:4;stroke-dasharray:none;stroke-opacity:1"
       d="M 2 2 L 2 38 L 96 38 L 96 2 L 2 2 z M 4 4 L 94 4 L 94 36 L 4 36 L 4 4 z M 62.619141 7.7167969 C 61.65291 8.3571969 60.281019 9.2735313 60.300781 10.457031 C 60.10771 10.935931 59.059691 11.840944 59.455078 12.777344 C 58.440845 14.335744 58.268821 16.357044 57.390625 17.964844 C 56.958058 18.506744 57.350507 19.195675 56.792969 19.546875 C 56.517027 19.880275 57.022067 20.227366 56.46875 20.447266 C 55.521435 21.885166 55.009803 23.578234 54.246094 25.115234 C 54.120867 25.833734 53.34407 26.268175 53.501953 27.046875 C 52.70681 27.225575 52.766842 28.296341 52.236328 28.806641 C 51.947719 29.381341 51.152365 30.076894 51.439453 30.746094 C 51.803656 31.134794 53.840859 31.632775 53.994141 30.796875 C 54.951031 30.176975 54.972077 28.769691 55.556641 27.837891 C 55.910599 26.445491 56.801021 25.6795 57.287109 24.3125 C 58.081569 23.8459 58.581566 24.275453 59.486328 24.001953 C 59.979286 23.754253 60.763031 24.142544 61.417969 23.839844 C 63.003052 23.958144 64.573581 23.314647 66.134766 23.873047 C 67.383387 23.113147 67.696886 24.119603 68.007812 25.345703 C 68.614549 26.617203 68.965696 27.981481 69.597656 29.238281 C 70.166485 29.618481 69.74995 30.525391 70.095703 31.087891 C 70.248493 31.649891 71.116499 31.437509 71.482422 31.224609 C 71.778511 30.235509 73.338055 29.694259 72.457031 28.505859 C 72.026396 27.785659 71.533905 27.016328 71.216797 26.298828 C 70.942345 25.854728 70.638419 25.452122 70.361328 24.982422 C 69.623925 24.115622 69.695416 22.690619 68.847656 21.574219 C 68.341093 20.565219 67.881594 19.568578 67.40625 18.642578 C 67.200632 17.923578 66.912591 17.097153 66.441406 16.501953 C 65.761761 16.136953 66.434876 15.405291 65.892578 14.900391 C 65.473522 14.247191 65.147391 13.414534 64.867188 12.927734 C 65.281316 12.283534 64.308972 11.586972 64.339844 10.888672 C 63.992569 10.055772 63.455778 9.2894844 63.220703 8.4589844 C 62.798841 8.3869844 63.234332 8.0841406 62.876953 7.8066406 C 62.804813 7.7406406 62.681443 7.7447969 62.619141 7.7167969 z M 34.261719 8.2871094 C 33.586619 8.6035094 31.805519 8.8388406 32.072266 9.9941406 C 32.824521 10.238641 32.8234 10.832778 32.849609 11.580078 C 33.125268 11.834778 32.534813 12.278059 32.792969 12.693359 C 33.136699 13.269759 32.816339 14.400312 33.359375 14.757812 C 33.058995 16.115712 33.490941 17.505953 33.304688 18.876953 C 33.299087 19.384453 34.005706 19.529053 33.470703 19.876953 C 33.528653 22.808253 33.689006 25.810091 33.210938 28.712891 C 33.030822 29.270291 32.337535 30.283831 33.423828 30.394531 C 34.69916 30.985131 36.168082 30.314481 37.484375 30.738281 C 38.070206 30.205581 38.510229 30.924647 39.078125 30.810547 C 40.09755 30.277847 41.562285 30.956559 42.515625 30.380859 C 42.988311 30.945259 44.002085 30.275166 44.521484 30.509766 C 45.460741 30.950366 46.595929 30.362094 47.542969 30.871094 C 47.965827 30.592394 48.426057 30.668563 48.871094 30.539062 C 49.376334 30.308362 49.463882 29.495484 49.882812 29.396484 C 50.607704 29.316484 50.740228 27.675988 49.730469 27.867188 C 48.348259 28.236887 46.974911 28.524975 45.558594 28.609375 C 44.772719 28.857875 43.861356 28.409488 43.021484 28.679688 C 42.255753 28.549287 41.485649 28.651997 40.722656 28.529297 C 39.846664 28.262997 39.194478 28.479656 38.328125 28.472656 C 37.715019 28.031656 36.264184 28.138937 36.345703 27.210938 C 36.189138 26.194037 36.51226 25.047203 35.861328 24.158203 C 36.421599 22.862103 36.1026 21.717694 36.097656 20.308594 C 36.040806 19.214794 35.787905 18.848125 35.962891 17.640625 C 36.71924 17.896525 37.428169 17.609803 38.056641 17.533203 C 38.784056 17.655003 39.453552 16.992953 40.224609 17.376953 C 40.751365 17.798553 41.428791 17.060997 41.751953 17.279297 C 42.527096 17.805597 43.642743 17.260516 44.529297 17.353516 C 45.513994 17.576916 46.543417 17.395484 47.542969 17.583984 C 48.285308 17.331584 48.887838 16.170437 49.380859 15.585938 C 49.614184 14.966437 49.169919 14.422144 48.533203 14.652344 C 47.732629 15.065344 47.021872 14.767234 46.099609 15.052734 C 45.074212 14.967734 44.126471 15.448238 43.128906 15.085938 C 41.604674 15.707437 39.890668 14.80415 38.353516 15.40625 C 37.835202 14.61015 35.907264 15.575962 35.919922 14.351562 C 35.987912 13.549962 36.163093 11.605084 35.892578 10.833984 C 36.530272 10.896984 37.542942 11.080594 38.158203 10.933594 C 38.976241 11.361794 39.820897 10.424559 40.564453 10.943359 C 42.038921 11.122859 43.619632 11.325269 44.994141 10.667969 C 45.421444 10.164469 46.777975 9.1416219 46.052734 8.4199219 C 45.14372 8.1323219 44.254891 8.9815719 43.324219 8.9511719 C 43.139202 9.5521719 42.577495 8.7192094 42.054688 8.9746094 C 40.570878 9.2991094 39.030201 8.6319469 37.621094 8.9355469 C 36.526338 8.6758469 35.352739 8.6089094 34.261719 8.2871094 z M 11.943359 8.3671875 C 11.321537 8.5974875 10.677217 9.0456844 10.289062 9.5839844 C 9.8855793 9.5499844 8.9572831 10.566728 9.5996094 11.173828 C 9.4627498 12.034028 9.9452489 12.939228 9.6601562 13.736328 C 9.5761472 14.176428 9.9419161 14.950147 10.009766 14.998047 C 9.2728202 15.303947 10.008466 16.274463 9.75 16.851562 C 9.9736048 18.360862 9.5049893 19.936284 9.9628906 21.396484 C 9.3124738 22.038784 10.405867 22.713575 9.7050781 23.296875 C 9.4812449 24.705575 9.7788765 26.207372 9.4394531 27.638672 C 9.4967721 28.472972 9.4169841 29.289072 9.1972656 30.076172 C 8.9935148 31.054472 10.399611 31.103731 10.75 30.394531 C 11.579858 29.831831 12.456065 29.162525 12.107422 28.015625 C 12.226625 27.502525 11.186768 27.344216 12.035156 27.166016 C 12.58843 26.608816 11.807646 25.728031 12.1875 25.082031 C 12.064015 23.144531 12.141524 21.197097 12.246094 19.279297 C 11.747275 18.299197 12.592138 16.992337 12.253906 15.960938 C 12.712436 15.658938 12.849139 17.660347 13.402344 18.123047 C 13.707897 18.174672 13.925186 18.717604 13.994141 18.755859 C 13.349496 19.191228 14.270256 20.029424 14.351562 20.585938 C 15.070535 21.977038 15.405397 23.667056 16.40625 24.847656 C 15.819561 25.749956 16.8626 26.452831 16.933594 27.332031 C 17.42625 27.969531 17.36982 29.186972 18.132812 29.513672 C 18.393489 30.216872 18.839304 31.606866 19.851562 30.759766 C 20.521314 30.214566 20.602656 29.328928 21.210938 28.798828 C 20.802705 27.818428 21.947761 27.475203 22.236328 26.658203 C 23.121276 24.699003 24.147561 22.799231 24.998047 20.832031 C 25.780626 20.086731 25.733952 18.874878 26.189453 17.955078 C 26.547473 17.477678 26.644835 16.556581 27.009766 16.300781 C 27.179593 16.712081 27.189278 17.692097 27.328125 17.841797 C 27.135937 18.844597 27.606794 19.913206 27.416016 20.941406 C 27.429336 22.985106 27.556056 25.035553 27.677734 27.064453 C 27.543305 28.297753 27.417238 29.562403 27.425781 30.783203 C 27.998936 31.399303 28.75739 30.484975 29.367188 30.421875 C 30.989673 29.097275 29.960163 26.843572 30.044922 25.201172 C 29.944501 23.536672 29.734021 21.877416 29.609375 20.228516 C 29.498443 19.333916 29.918018 18.246859 29.466797 17.443359 C 28.519846 17.361359 29.833733 16.60135 29.59375 16.03125 C 29.57008 14.68545 29.569161 13.170128 29.476562 11.923828 C 29.738554 11.282928 30.037516 9.9902656 28.984375 9.9472656 C 29.115209 9.4029656 29.129185 8.5952906 28.34375 8.6503906 C 27.277833 9.2476906 26.322362 10.276734 25.876953 11.427734 C 25.822983 11.875534 25.447827 12.386609 25.996094 12.787109 C 25.301514 13.012509 25.298014 13.942487 25.388672 14.429688 C 24.717463 14.868287 24.829482 16.008041 24.382812 16.681641 C 24.076085 17.430841 24.202986 18.288741 23.617188 18.931641 C 22.766144 21.374941 21.805984 23.807978 20.464844 26.017578 C 19.846704 27.360078 19.711129 26.444791 19.197266 25.712891 C 18.981592 24.941791 18.524092 24.331016 18.291016 23.603516 C 17.890512 23.164016 17.502863 22.424437 17.082031 22.210938 C 17.423426 21.309638 16.922964 20.1026 16.193359 19.5625 C 16.836663 18.7629 14.873867 18.569062 15.740234 17.976562 C 15.710264 16.909363 15.153688 15.845378 14.804688 14.830078 C 14.329849 14.386578 13.639752 13.874425 14.15625 13.515625 C 13.946234 12.959325 14.083152 12.066531 13.394531 11.832031 C 13.977506 10.978731 13.208891 10.309112 12.996094 9.5078125 C 12.747055 9.1676125 12.68171 8.7886469 12.373047 8.4980469 C 12.230292 8.4570469 12.092713 8.3784875 11.943359 8.3671875 z M 80.25 8.3671875 C 78.968929 8.7420875 77.474797 8.4025937 76.056641 8.4335938 C 75.389669 8.9270938 74.282123 8.9568906 73.816406 9.6503906 C 73.617164 10.215291 73.840593 10.714303 74.386719 10.845703 C 75.355557 11.027503 74.121874 12.815288 75.150391 13.054688 C 75.151591 13.525588 74.797687 13.933788 74.953125 14.492188 C 74.868125 15.187588 75.17029 15.787856 74.984375 16.472656 C 74.914155 17.600256 74.899469 18.813763 75.189453 19.851562 C 75.068392 20.378962 74.77302 21.134066 75.21875 21.572266 C 74.834963 22.640666 75.062614 23.768534 74.785156 24.865234 C 75.166218 26.416334 74.639761 28.030266 74.703125 29.572266 C 73.86331 30.927866 75.45485 31.360322 76.351562 30.607422 C 76.837202 30.070222 77.7761 29.930594 77.810547 29.058594 C 77.60882 27.829694 77.901417 26.496375 77.292969 25.359375 C 78.158742 25.180875 77.49173 23.981034 77.554688 23.427734 C 77.675562 22.610734 77.539079 21.734719 77.511719 20.886719 C 78.464006 20.244319 79.552555 20.163734 80.623047 20.052734 C 81.140478 19.714134 81.850225 20.125203 82.375 19.595703 C 83.099908 19.323403 83.88846 19.259859 84.546875 18.943359 C 85.236868 18.218459 86.305226 18.2875 87.015625 17.625 C 87.438348 17.3926 88.170833 17.039956 88.064453 16.472656 C 89.043152 16.550656 88.801104 15.105794 89.462891 14.933594 C 90.122124 14.380294 90.532299 13.180147 90.189453 12.310547 C 90.212513 11.727847 89.879885 11.418103 89.841797 10.908203 C 89.041776 10.362903 88.257456 9.6096531 87.199219 9.7519531 C 86.807574 9.1459531 85.886947 8.6591219 85.203125 9.0449219 C 84.612589 8.5010219 83.717834 9.0729719 83.210938 8.5136719 C 82.227891 8.5306719 81.231889 8.4166875 80.25 8.3671875 z M 80.599609 10.130859 C 82.376289 10.531459 84.291027 10.121372 85.912109 11.201172 C 86.541989 11.160172 86.771448 12.150919 87.28125 12.511719 C 87.856077 13.547319 87.099308 14.573391 86.330078 15.275391 C 85.812415 15.774691 85.357201 15.953962 84.980469 16.601562 C 83.549615 17.334263 81.992184 17.680347 80.412109 17.873047 C 79.83602 18.226247 79.52509 18.040447 79.027344 17.873047 C 78.184417 18.023147 77.491193 18.121756 77.791016 17.097656 C 77.680568 16.048556 77.747208 15.263159 77.554688 14.255859 C 77.900053 13.345559 77.347211 12.649738 77.607422 11.710938 C 77.269113 10.257538 78.753021 10.267434 79.804688 10.427734 C 80.079915 10.377734 80.339858 10.220659 80.599609 10.130859 z M 62.355469 12.138672 C 63.162673 12.999872 62.604311 14.687431 63.847656 15.144531 C 63.570191 16.087131 64.163024 16.963972 64.460938 17.826172 C 65.108891 18.043372 64.822216 19.403241 65.710938 19.494141 C 66.569234 21.209241 66.031185 21.469934 64.21875 21.365234 C 63.346397 21.467834 62.550307 21.681462 61.707031 21.539062 C 60.099344 21.962462 58.673302 21.299775 58.537109 21.296875 C 59.201616 21.161175 58.401149 20.414672 58.9375 20.263672 C 59.28623 18.853072 59.978538 17.814569 60.537109 16.417969 C 61.041965 15.268469 61.220047 14.027891 61.996094 13.025391 C 61.946724 12.621091 62.391204 12.539872 62.355469 12.138672 z M 10.017578 13.289062 C 10.067675 13.305187 9.7816529 13.395141 9.8300781 13.306641 C 9.9460416 13.286141 10.000879 13.283688 10.017578 13.289062 z "
       id="path5469"
       transform="translate(0,1012.3622)" />
  </g>
</svg>
